<svg xmlns="http://www.w3.org/2000/svg" width="27.509" height="19.816" viewBox="0 0 27.509 19.816">
    <defs>
        <style>
            .cls-1{fill:#5d5d5d}
        </style>
    </defs>
    <path id="noun_back_arrow_2690272" d="M22.408 99.582V94.6a.671.671 0 0 0-.313-.583.534.534 0 0 0-.608.032L9.261 103.3a.7.7 0 0 0-.261.551.689.689 0 0 0 .261.551l12.22 9.241a.536.536 0 0 0 .608.038.687.687 0 0 0 .313-.589v-5.346a38.9 38.9 0 0 1 4.842.291c6.36.849 8.065 5.143 8.133 5.32a.585.585 0 0 0 .546.4.718.718 0 0 0 .114-.006.647.647 0 0 0 .472-.652c0-10.819-11.441-13.124-14.101-13.517z" class="cls-1" data-name="noun_back arrow_2690272" transform="translate(-9 -93.942)"/>
</svg>
