<svg xmlns="http://www.w3.org/2000/svg" id="noun_copy_573715" width="22.75" height="24.917" viewBox="0 0 22.75 24.917">
    <defs>
        <style>
            .cls-1{fill:#5d5d5d}
        </style>
    </defs>
    <path id="Path_748" d="M27.585 22.667a1.087 1.087 0 0 1-1.085-1.083V3.654a.512.512 0 0 0-.542-.542H10.2a1.15 1.15 0 0 1-.813-1.3A1.221 1.221 0 0 1 10.2 1h15.814a2.659 2.659 0 0 1 2.654 2.654v17.93a1.087 1.087 0 0 1-1.083 1.083z" class="cls-1" data-name="Path 748" transform="translate(-5.918 -1)"/>
    <path id="Path_749" d="M21.417 7H4.625A1.6 1.6 0 0 0 3 8.625v18.417a1.6 1.6 0 0 0 1.625 1.625h16.25a1.6 1.6 0 0 0 1.625-1.625V8.083A1.087 1.087 0 0 0 21.417 7z" class="cls-1" data-name="Path 749" transform="translate(-3 -3.75)"/>
</svg>
