<svg xmlns="http://www.w3.org/2000/svg" id="noun_Save_2429243" width="24.032" height="24.758" viewBox="0 0 24.032 24.758">
    <defs>
        <style>
            .cls-1{fill:#5d5d5d;fill-rule:evenodd}
        </style>
    </defs>
    <path id="Path_746" d="M77.011 64.17h14.638l6.937 6.937.136.008v15.492a2.327 2.327 0 0 1-2.322 2.321H77.011a2.327 2.327 0 0 1-2.321-2.321V66.491a2.327 2.327 0 0 1 2.321-2.321zm2.7 11.019H93.7a2.327 2.327 0 0 1 2.321 2.321v6.69a2.327 2.327 0 0 1-2.321 2.326H79.709a2.327 2.327 0 0 1-2.321-2.326v-6.69a2.327 2.327 0 0 1 2.321-2.321z" class="cls-1" data-name="Path 746" transform="translate(-74.69 -64.17)"/>
</svg>
