<svg xmlns="http://www.w3.org/2000/svg" width="26.371" height="24.571" viewBox="0 0 26.371 24.571">
    <defs>
        <style>
            .cls-1{fill:#5d5d5d}
        </style>
    </defs>
    <path id="noun_Delete_1610851" d="M39.241 15.818h-6.028V13.66A1.765 1.765 0 0 0 31.33 12h-8.288a1.765 1.765 0 0 0-1.884 1.66v2.158H15.13a1 1 0 1 0 0 1.992h1.62l1.733 17.266a1.841 1.841 0 0 0 1.884 1.494H34.08a1.87 1.87 0 0 0 1.884-1.494L37.7 17.811h1.545a1 1 0 1 0 0-1.992zm-15.823-1.826h7.535v1.826h-7.535z" class="cls-1" transform="translate(-14 -12)"/>
</svg>
