<svg xmlns="http://www.w3.org/2000/svg" width="38.905" height="34.228" viewBox="0 0 38.905 34.228">
    <defs>
        <style>
            .cls-1{fill:#ffa1a1}
        </style>
    </defs>
    <path id="noun_Error_1156903" d="M43.456 39.932L26.989 12.358a3.056 3.056 0 0 0-5.186-.216L5.466 39.889c-1.3 2.031.173 5.143 2.593 5.143H40.82c2.38 0 3.846-3.069 2.636-5.1zm-19.1.432a2.118 2.118 0 1 1 2.118-2.118 2.121 2.121 0 0 1-2.121 2.118zm2.244-7.779a2.161 2.161 0 0 1-4.322 0V21.521a2.161 2.161 0 0 1 4.322 0z" class="cls-1" transform="translate(-4.984 -10.804)"/>
</svg>
