<svg xmlns="http://www.w3.org/2000/svg" width="245.167" height="70.559" viewBox="0 0 245.167 70.559">
    <defs>
        <style>
            .cls-1{fill:#fff}
        </style>
    </defs>
    <g id="לוגו_תפוח_לבן-01" data-name="לוגו תפוח לבן-01" transform="translate(0 -.04)">
        <path id="Path_337" d="M647.145 3.249l.032.032a.3.3 0 0 0 .516 0 11.978 11.978 0 0 1 .9-.9c.194-.194.194-.323 0-.516L647.435.7h-.1a3.421 3.421 0 0 1-.291.355c-1.061 1.129-1.061 1.129.101 2.194z" class="cls-1" data-name="Path 337" transform="translate(-437.72 -.447)"/>
        <path id="Path_338" d="M646.957 3.209a.552.552 0 0 1-.432-.229c-.626-.574-.942-.865-.968-1.236s.274-.671.849-1.291a3.435 3.435 0 0 0 .274-.323l.068-.09h.3l1.229 1.217a.609.609 0 0 1 .21.416.609.609 0 0 1-.21.419 12.3 12.3 0 0 0-.9.894.543.543 0 0 1-.42.223zm-.032-2.666a2.239 2.239 0 0 1-.194.226c-.452.481-.729.771-.72.949s.307.458.81.916l.039.042c.055.065.087.077.1.077s.042 0 .084-.065a12.607 12.607 0 0 1 .916-.926.289.289 0 0 0 .071-.094.8.8 0 0 0-.071-.094z" class="cls-1" data-name="Path 338" transform="translate(-437.242)"/>
        <path id="Path_339" d="M685.131 33.788a1.843 1.843 0 0 0-3.55.194 1.739 1.739 0 0 0 .871 2 .913.913 0 0 1 .549 1v16.1c0 .323-.032.678-.064 1a2.5 2.5 0 0 1-1.452 2.065 6.132 6.132 0 0 1-2.1.549 51.246 51.246 0 0 1-5.453.065 20.027 20.027 0 0 0-3.937.258c-2.484.452-3.9 1.71-4.356 3.808a7.1 7.1 0 0 0-.162 1.646c0 3.1 0 6.163.032 9.261 0 .516-.193.581-.645.581s-.645-.065-.645-.581c.032-6.906-.064-13.843.065-20.749a3.794 3.794 0 0 1 3.259-4.034 16.1 16.1 0 0 1 3.937-.323c.129 0 .29 0 .355.161.1.258.323.226.516.258.387.032.839-.161 1.032.387.032.065.226.1.355.1h3.485a.394.394 0 0 0 .452-.452v-2.13c0-.323-.129-.452-.452-.452h-3.483c-.129 0-.355-.032-.387.1-.1.549-.516.387-.839.42-.226.032-.548-.1-.613.194-.1.452-.42.387-.742.419a19.237 19.237 0 0 0-4.292.484 4.354 4.354 0 0 0-3.453 3.84 16.926 16.926 0 0 0-.161 2.549v19.262c0 .452-.129.581-.581.581s-.645-.065-.645-.581c.032-7.2 0-14.392.032-21.556a10.325 10.325 0 0 1 1.742-5.97 6.755 6.755 0 0 1 3.1-2.743 9.316 9.316 0 0 0 4.84-4.518 64.96 64.96 0 0 1 3.614-6.131.772.772 0 0 0 .226-.516c-.194.161-.355.258-.516.387-1.9 1.484-3.808 3-5.841 4.324a10.265 10.265 0 0 0-4.13 5.679 3.315 3.315 0 0 1-.71 1.226 11.268 11.268 0 0 0-2.872 5.131 18.035 18.035 0 0 0-.484 4.55v20.008c0 .323.129.71-.452.71-.645 0-.645 0-.645-.71V20.622a26.587 26.587 0 0 0-.1-2.775 11.806 11.806 0 0 0-2.84-6.809c-.613-.678-.613-.516.032-1.162.194-.194.355-.355.064-.645-1.484-1.452-2.936-2.936-4.388-4.389-.193-.194-.355-.258-.581 0-.613.645-1.226 1.291-1.872 1.9-.323.29-.258.516.032.774 1.355 1.323 2.678 2.678 4 4 .516.516.549.549 1.1 0 .226-.226.355-.355.645-.032a10.581 10.581 0 0 1 2.549 4.679 19.677 19.677 0 0 1 .387 4.13V71.9c0 .29-.129.387-.419.42a7.474 7.474 0 0 1-1.484-.129 2.639 2.639 0 0 1 .1 1 .759.759 0 0 0 .258.065h8.616c.291 0 .419-.129.419-.419 0-.387.065-.774.065-1.162v-9.168c0-2.646 1.162-4.034 3.743-4.55a11.945 11.945 0 0 1 2.13-.226h5.938a8.994 8.994 0 0 0 3.324-.549 3.382 3.382 0 0 0 2.323-2.84 7 7 0 0 0 .065-1.162V36.756a.846.846 0 0 1 .484-.9 1.811 1.811 0 0 0 .613-2.065z" class="cls-1" data-name="Path 339" transform="translate(-440.275 -3.138)"/>
        <path id="Path_340" d="M665.538 73.026h-8.616a.789.789 0 0 1-.277-.058l-.207-.071v-.323a2 2 0 0 0-.081-.752l-.155-.387.41.081a7.06 7.06 0 0 0 1.439.126c.194-.023.194-.055.194-.194v-51.6a19.374 19.374 0 0 0-.384-4.082 10.142 10.142 0 0 0-2.5-4.579c-.1-.1-.139-.113-.139-.113a1.039 1.039 0 0 0-.174.158c-.645.645-.826.594-1.42 0L652.311 9.9a211.062 211.062 0 0 0-2.678-2.672.793.793 0 0 1-.323-.568.729.729 0 0 1 .29-.539c.645-.607 1.258-1.262 1.859-1.891A.61.61 0 0 1 651.9 4a.665.665 0 0 1 .474.239l1.45 1.461c.968.968 1.936 1.959 2.933 2.927a.587.587 0 0 1 .21.584.95.95 0 0 1-.271.384l-.2.194a2.1 2.1 0 0 0-.216.223 2.866 2.866 0 0 0 .21.239l.177.194a12.055 12.055 0 0 1 2.9 6.935 27.152 27.152 0 0 1 .1 2.8v51.004a2.038 2.038 0 0 0 .026.474 3.568 3.568 0 0 0 .394 0c.165 0 .207-.035.213-.042a.574.574 0 0 0 .019-.274V51.167a18.508 18.508 0 0 1 .49-4.6 11.407 11.407 0 0 1 2.917-5.224 3.062 3.062 0 0 0 .645-1.139 10.528 10.528 0 0 1 4.221-5.808c1.823-1.187 3.569-2.552 5.256-3.872l.571-.445c.071-.058.145-.11.223-.165s.184-.132.287-.219l.371-.323v.484a.917.917 0 0 1-.236.61l-.036.045a64.924 64.924 0 0 0-3.591 6.1 9.506 9.506 0 0 1-4.96 4.627 6.547 6.547 0 0 0-2.994 2.662 10.055 10.055 0 0 0-1.694 5.866v10.759c0 3.533 0 7.193-.016 10.791 0 .323.055.352.42.352s.355-.026.355-.355V52.048a17.234 17.234 0 0 1 .161-2.582 4.593 4.593 0 0 1 3.617-4.024 17.749 17.749 0 0 1 3.979-.461h.494c.274-.016.342-.026.384-.229.09-.4.465-.381.645-.371a.9.9 0 0 0 .161 0 1.7 1.7 0 0 1 .255 0c.284 0 .352 0 .394-.229.074-.3.394-.29.552-.284h3.55a.6.6 0 0 1 .678.678v2.13a.616.616 0 0 1-.678.681h-3.49c-.135 0-.458-.023-.558-.223-.1-.274-.216-.281-.539-.265a1.984 1.984 0 0 1-.323 0h-.113a.616.616 0 0 1-.6-.39.451.451 0 0 0-.142 0 16.011 16.011 0 0 0-3.872.323 3.573 3.573 0 0 0-3.088 3.814c-.081 4.392-.071 8.867-.062 13.195v7.554c0 .323.055.352.42.352s.42-.019.42-.355c-.032-3.095-.032-6.228-.032-9.261a7.218 7.218 0 0 1 .168-1.7c.474-2.207 1.959-3.511 4.518-3.979a20.352 20.352 0 0 1 3.979-.261c.516 0 1.036 0 1.556.023a30.41 30.41 0 0 0 3.872-.087 5.871 5.871 0 0 0 2.027-.526 2.259 2.259 0 0 0 1.323-1.885 9.611 9.611 0 0 0 .064-.968V36.527c0-.423-.058-.626-.419-.794a1.962 1.962 0 0 1-.994-2.259 2.075 2.075 0 1 1 3.278 2.12c-.323.174-.381.323-.381.71v16.422a7.237 7.237 0 0 1-.068 1.2 3.607 3.607 0 0 1-2.469 3.014 9.034 9.034 0 0 1-3.4.565h-5.921a11.4 11.4 0 0 0-2.088.223c-2.494.5-3.55 1.791-3.55 4.324v9.164a3.7 3.7 0 0 1-.032.6 3.346 3.346 0 0 0-.032.561.584.584 0 0 1-.655.649zm-8.645-.458h8.645c.164 0 .194-.026.194-.194a3.925 3.925 0 0 1 .032-.6 3.359 3.359 0 0 0 .032-.561v-9.161c0-2.756 1.21-4.227 3.924-4.773a12.106 12.106 0 0 1 2.175-.229h5.937a8.617 8.617 0 0 0 3.227-.532 3.166 3.166 0 0 0 2.185-2.665 6.773 6.773 0 0 0 .061-1.126V36.3a1.065 1.065 0 0 1 .6-1.1 1.585 1.585 0 0 0 .5-1.791 1.613 1.613 0 0 0-3.111.174 1.507 1.507 0 0 0 .746 1.746 1.131 1.131 0 0 1 .677 1.2v16.1c0 .342-.032.707-.065 1.023a2.733 2.733 0 0 1-1.575 2.259 6.227 6.227 0 0 1-2.181.571 30.687 30.687 0 0 1-3.924.087c-.52 0-1.036-.019-1.549-.019a20.113 20.113 0 0 0-3.891.252c-2.381.432-3.746 1.613-4.179 3.633a6.722 6.722 0 0 0-.158 1.613c0 3.03 0 6.163.032 9.261 0 .745-.429.81-.871.81s-.871-.1-.871-.81v-7.547c0-4.33-.019-8.806.065-13.2a4.013 4.013 0 0 1 3.433-4.25 16.337 16.337 0 0 1 3.989-.323.536.536 0 0 1 .565.3c.029.074.045.087.223.1l.119.016a1.448 1.448 0 0 0 .232 0c.294 0 .733-.035.949.468a.809.809 0 0 0 .171.019h3.485c.181 0 .226-.045.226-.226v-2.13c0-.2-.029-.223-.226-.223h-3.656a.707.707 0 0 1-.836.516 1.208 1.208 0 0 0-.187 0 1.175 1.175 0 0 1-.239 0 .647.647 0 0 0-.181 0 .71.71 0 0 1-.8.594h-.5a17.428 17.428 0 0 0-3.895.461 4.13 4.13 0 0 0-3.285 3.653 16.362 16.362 0 0 0-.161 2.517v19.272c0 .574-.232.81-.807.81-.452 0-.871-.1-.871-.81V60.538c0-3.533 0-7.186.016-10.768a10.53 10.53 0 0 1 1.781-6.1 6.979 6.979 0 0 1 3.2-2.824 9.058 9.058 0 0 0 4.721-4.411 61.586 61.586 0 0 1 3.378-5.75l-.265.207c-1.7 1.323-3.45 2.694-5.289 3.872a10.015 10.015 0 0 0-4.037 5.56 3.55 3.55 0 0 1-.758 1.31 10.969 10.969 0 0 0-2.82 5.034 18.257 18.257 0 0 0-.478 4.492v20.146a.767.767 0 0 1-.142.613.7.7 0 0 1-.542.187c-.807 0-.871-.142-.871-.939v-51a25.932 25.932 0 0 0-.1-2.749 11.64 11.64 0 0 0-2.781-6.683l-.174-.187c-.458-.49-.455-.645.023-1.1l.19-.187a.8.8 0 0 0 .158-.187c0-.019-.023-.068-.093-.139-.988-.968-1.978-1.965-2.937-2.93l-1.446-1.459c-.1-.1-.135-.1-.135-.1s-.039 0-.113.094a53.168 53.168 0 0 1-1.888 1.917c-.094.087-.142.158-.142.207s.023.1.171.236c.913.891 1.817 1.8 2.691 2.685l1.32 1.326a1.929 1.929 0 0 0 .381.323c.065 0 .3-.236.394-.323.155-.155.3-.3.513-.294a.685.685 0 0 1 .461.268 10.621 10.621 0 0 1 2.6 4.785 19.8 19.8 0 0 1 .391 4.176v51.6a.6.6 0 0 1-.62.645 9.066 9.066 0 0 1-1.207-.071 3.256 3.256 0 0 1 .044.548z" class="cls-1" data-name="Path 340" transform="translate(-439.785 -2.682)"/>
        <path id="Path_341" d="M627.9 108.036a27.518 27.518 0 0 0-.613-6.906 14.244 14.244 0 0 0-3.614-7.1 4.73 4.73 0 0 1-1.226-3.614c0-.29.1-.452.387-.419s.355-.161.355-.42v-5.613c0-.226-.065-.387-.323-.387-.387 0-.419-.194-.419-.516 0-1.388-.032-2.743 0-4.13a4.2 4.2 0 0 1 1.839-3.517.552.552 0 0 1 .839.032 1.262 1.262 0 0 0 1.839-.161 1.336 1.336 0 0 0-.226-1.872 1.291 1.291 0 0 0-1.871.323 1.394 1.394 0 0 1-.484.484 5.173 5.173 0 0 0-2.9 4.873v3.967c0 .387-.129.516-.516.516-.516 0-.452-.323-.452-.645V72.282a22.647 22.647 0 0 0-.258-3.291 18.611 18.611 0 0 0-1.9-5.2 6.864 6.864 0 0 0-3.259-3.42c-1.484-.742-2.872-1.646-4.292-2.517a.969.969 0 0 0-.581-.258c.226.29.387.484.549.71a33.484 33.484 0 0 1 2.678 3.679 7.88 7.88 0 0 0 4 3.227 1.146 1.146 0 0 1 .646.581 10.376 10.376 0 0 1 1.291 4.776c.064 4.195.032 8.422.064 12.617 0 .355-.129.484-.484.452s-.42.161-.42.452v5.518c0 .258.065.484.388.452.452-.032.516.226.516.581 0 1.613-.032 3.227 0 4.808 0 .484-.161.613-.645.549a28.462 28.462 0 0 0-4.388-.032 18.333 18.333 0 0 1-3.259-.065c-1.807-.226-2.743-1.065-2.969-2.614a6.781 6.781 0 0 1-.032-.807V81.124c0-.387-.1-.549-.516-.516-.323.032-.548.032-.548.452 0 3.969-.032 7.906.032 11.875.032 2.356 1.1 3.453 3.42 3.872a22.332 22.332 0 0 0 4.872.129 28.981 28.981 0 0 1 3.356.065c.452.032.645.194.645.678-.032 3.582-.032 7.164-.064 10.746 0 .516.161.678.678.678 2.646-.032 5.292 0 7.906 0a.871.871 0 0 1-.041-1.067zm-4.808-.387c0 .355-.161.452-.484.452-.549 0-1.065-.032-1.614 0-.419.032-.516-.161-.516-.549v-9.681c0-.549.065-.581.549-.323a3.635 3.635 0 0 1 2.033 3.356c.061 2.26-.004 4.486.028 6.745zm3.259.452a14 14 0 0 0-1.645 0c-.484.032-.613-.194-.613-.645.032-1 0-2.033 0-3.259a24.026 24.026 0 0 0-.161-4.227 4.32 4.32 0 0 0-3-3.582.646.646 0 0 1-.484-.71v-5.1c0-.355-.032-.613.484-.645s.516.226.516.613a6.087 6.087 0 0 0 1.872 4.614 12.191 12.191 0 0 1 2.936 6.034 27.359 27.359 0 0 1 .678 6.26c-.006.485-.102.679-.587.646z" class="cls-1" data-name="Path 341" transform="translate(-411.179 -38.986)"/>
        <path id="Path_342" d="M627.893 108.856h-8.322c-.645 0-.907-.265-.907-.907.016-1.781.023-3.55.032-5.347s0-3.6.032-5.4c0-.339-.081-.426-.436-.449a28.142 28.142 0 0 0-3.334-.065h-.39a20.9 20.9 0 0 1-4.518-.148c-2.5-.452-3.575-1.675-3.608-4.095-.048-2.975-.042-5.989-.038-8.9v-2.976c0-.6.422-.645.706-.671h.045a.752.752 0 0 1 .578.145.786.786 0 0 1 .187.6V92a6.319 6.319 0 0 0 .033.781c.213 1.455 1.068 2.2 2.772 2.417a18.282 18.282 0 0 0 3.227.061 28.992 28.992 0 0 1 4.427.032c.245.032.323 0 .323-.016a.6.6 0 0 0 .061-.307 89.327 89.327 0 0 1 0-3.191v-1.614c0-.065 0-.261-.061-.323a.323.323 0 0 0-.213-.032.567.567 0 0 1-.442-.126.733.733 0 0 1-.187-.555v-5.508a.687.687 0 0 1 .194-.545.591.591 0 0 1 .474-.132c.155.016.194 0 .2-.019a.366.366 0 0 0 .039-.207c0-1.672-.016-3.353-.019-5.034 0-2.488 0-5.06-.045-7.58a10.129 10.129 0 0 0-1.265-4.669.916.916 0 0 0-.539-.481 8.068 8.068 0 0 1-4.1-3.314 27.268 27.268 0 0 0-2.236-3.117l-.41-.542c-.113-.158-.222-.294-.348-.455l-.487-.623h.465a.932.932 0 0 1 .6.226l.1.065.813.5c1.116.694 2.259 1.41 3.462 2a7.053 7.053 0 0 1 3.365 3.55c.1.223.21.445.323.671a16.2 16.2 0 0 1 1.614 4.585 22.8 22.8 0 0 1 .258 3.32v10.758a.709.709 0 0 0 .029.278c.029.036.045.039.2.039.261 0 .29-.026.29-.29v-3.986a5.429 5.429 0 0 1 3.024-5.073 1.137 1.137 0 0 0 .4-.41 1.581 1.581 0 0 1 1.036-.671 1.523 1.523 0 0 1 1.162.294 1.562 1.562 0 0 1 .271 2.194 1.5 1.5 0 0 1-1.065.568 1.417 1.417 0 0 1-1.11-.381c-.226-.2-.323-.187-.545-.019a4.011 4.011 0 0 0-1.752 3.343c-.019.92 0 1.846 0 2.74v1.384c0 .29 0 .29.194.29s.549.081.549.613V89.1c0 .429-.194.645-.581.645h-.126s-.035.032-.035.187a4.476 4.476 0 0 0 1.162 3.456 14.387 14.387 0 0 1 3.675 7.209 27.7 27.7 0 0 1 .616 6.964v.071l-.039.055a.645.645 0 0 0 .039.81zm-11.688-12.64c.8 0 1.484.029 2.13.084a.793.793 0 0 1 .852.9c0 1.8-.023 3.6-.032 5.4s0 3.566-.032 5.347c0 .39.061.449.452.449 1.765-.023 3.549 0 5.292 0h2.259a1.007 1.007 0 0 1 .11-.913 27.359 27.359 0 0 0-.613-6.776 13.953 13.953 0 0 0-3.549-6.986 4.9 4.9 0 0 1-1.291-3.779.645.645 0 0 1 .184-.52.562.562 0 0 1 .455-.123c.084 0 .1 0 .1-.194v-5.616c0-.158-.019-.158-.1-.158-.645 0-.645-.484-.645-.745v-4.134a4.427 4.427 0 0 1 1.936-3.7.771.771 0 0 1 1.123.048.991.991 0 0 0 .765.265 1.05 1.05 0 0 0 .742-.394 1.117 1.117 0 0 0-.191-1.562 1.077 1.077 0 0 0-.81-.2 1.116 1.116 0 0 0-.729.481 1.613 1.613 0 0 1-.558.549 4.946 4.946 0 0 0-2.791 4.679v3.966c0 .516-.229.745-.742.745a.694.694 0 0 1-.523-.177.794.794 0 0 1-.158-.6V71.808a21.893 21.893 0 0 0-.277-3.259A15.525 15.525 0 0 0 618 64.093c-.107-.226-.213-.452-.323-.678a6.626 6.626 0 0 0-3.153-3.314c-1.213-.6-2.375-1.326-3.5-2.026l-.474-.294.358.455a27.96 27.96 0 0 1 2.259 3.162 7.623 7.623 0 0 0 3.872 3.13 1.368 1.368 0 0 1 .771.7 10.515 10.515 0 0 1 1.31 4.863c.039 2.523.045 5.1.049 7.586 0 1.678 0 3.359.016 5.034a.717.717 0 0 1-.184.542.687.687 0 0 1-.545.136c-.077 0-.116 0-.129.016s-.045.048-.045.21v5.518c0 .174.039.213.042.216a.134.134 0 0 0 .1 0 .72.72 0 0 1 .562.155.855.855 0 0 1 .2.645v4.8a.832.832 0 0 1-.213.645.855.855 0 0 1-.687.126 28.367 28.367 0 0 0-4.35-.029 18.527 18.527 0 0 1-3.295-.068c-1.891-.236-2.927-1.155-3.169-2.8a7.461 7.461 0 0 1-.032-.842V80.65c0-.2-.032-.252-.045-.265s-.052-.039-.229-.026h-.042c-.3.029-.3.029-.3.219v2.975c0 2.9 0 5.925.035 8.9.032 2.185.968 3.227 3.227 3.653a20.037 20.037 0 0 0 4.431.142h.391c.487-.023.9-.029 1.29-.029zM626 107.859h-.11a13.556 13.556 0 0 0-1.613 0 .8.8 0 0 1-.645-.174.935.935 0 0 1-.223-.7c.019-.645 0-1.33 0-2.043v-2.369a16.459 16.459 0 0 0-.155-3.036 4.079 4.079 0 0 0-2.853-3.4.862.862 0 0 1-.646-.926v-5.168c0-.323 0-.768.7-.813.755 0 .755.526.755.839a5.841 5.841 0 0 0 1.807 4.456 12.6 12.6 0 0 1 3 6.131 27.515 27.515 0 0 1 .681 6.312.923.923 0 0 1-.21.713.707.707 0 0 1-.49.177zm-.92-.481c.281 0 .558 0 .836.023.187 0 .252-.016.271-.036a.849.849 0 0 0 .068-.384 26.8 26.8 0 0 0-.675-6.209 12.128 12.128 0 0 0-2.875-5.925 6.341 6.341 0 0 1-1.936-4.782c0-.361 0-.378-.29-.378s-.258.035-.258.358v5.165c0 .3.071.41.323.5a4.539 4.539 0 0 1 3.153 3.756 17.073 17.073 0 0 1 .164 3.117V107a.541.541 0 0 0 .081.358.442.442 0 0 0 .29.052c.284-.023.561-.029.842-.029zm-4.617.481a.646.646 0 0 1-.463-.159.807.807 0 0 1-.2-.626V97.4c0-.323 0-.545.2-.645a.762.762 0 0 1 .681.132 3.829 3.829 0 0 1 2.152 3.55c.039 1.291.032 2.6.029 3.872v2.885a.62.62 0 0 1-.71.681h-1.6zm-.2-10.684a1.715 1.715 0 0 0 0 .223v9.681c0 .213.036.274.055.294s.061.042.219.029a10.237 10.237 0 0 1 1.091 0h.539c.239 0 .258-.032.258-.223v-2.9c0-1.258 0-2.562-.026-3.85a3.392 3.392 0 0 0-1.907-3.156c-.123-.042-.19-.074-.236-.094z" class="cls-1" data-name="Path 342" transform="translate(-410.724 -38.512)"/>
        <path id="Path_343" d="M671.359 214.9a2.646 2.646 0 0 0-.1-1 .713.713 0 0 0 .1 1z" class="cls-1" data-name="Path 343" transform="translate(-454.545 -144.85)"/>
        <path id="Path_344" d="M671.111 214.5l-.387-.387a.938.938 0 0 1-.119-1.291l.242-.323.152.381a2.353 2.353 0 0 1 .116.926z" class="cls-1" data-name="Path 344" transform="translate(-454.071 -143.902)"/>
        <path id="Path_345" d="M607.4 117.3c.387 0 .549-.129.549-.516-.032-.581 0-1.162 0-1.775v-1.872c0-.323-.129-.452-.452-.452s-.678.032-1 0c-.452-.032-.645.1-.613.581.032.839 0 1.678 0 2.517-.032 1.586-.032 1.554 1.516 1.517z" class="cls-1" data-name="Path 345" transform="translate(-410.367 -76.296)"/>
        <path id="Path_346" d="M606.356 117.042c-.478 0-.758-.039-.949-.229-.255-.255-.248-.645-.229-1.523v-2.507a.8.8 0 0 1 .178-.645.846.846 0 0 1 .678-.174 4.846 4.846 0 0 0 .645 0H607a.6.6 0 0 1 .678.678v3.633c0 .513-.252.755-.771.758h-.09zm-.461-4.627c-.145 0-.2.029-.22.048a.448.448 0 0 0-.045.3c.023.571 0 1.142 0 1.694v.836c0 .645-.019 1.084.1 1.2s.507.106 1.1.094h.1c.293 0 .323-.055.323-.29a11.664 11.664 0 0 1 0-1.168v-2.478c0-.2-.029-.223-.226-.223h-.323a5.124 5.124 0 0 1-.7 0z" class="cls-1" data-name="Path 346" transform="translate(-409.887 -75.798)"/>
        <path id="Path_347" d="M738.2 131.7c.452 0 .677-.129.613-.613v-.323c0-1.033.129-.968-.968-.968h-.258c-.71 0-.71 0-.71.71-.001 1.394-.227 1.164 1.323 1.194z" class="cls-1" data-name="Path 347" transform="translate(-499.087 -87.886)"/>
        <path id="Path_348" d="M737.732 131.466h-.545c-.468 0-.7 0-.865-.165s-.152-.387-.142-.8v-.458c0-.829.1-.936.936-.936h.439c.478 0 .71 0 .871.161s.152.365.145.745v.61a.742.742 0 0 1-.139.61.894.894 0 0 1-.7.233zm-.4-.455h.4c.239 0 .323-.042.355-.077a.378.378 0 0 0 .029-.278v-.645a1.842 1.842 0 0 0-.016-.426 2.711 2.711 0 0 0-.542-.019h-.439a2 2 0 0 0-.468.026 2.934 2.934 0 0 0 0 .455v.471a1.85 1.85 0 0 0 0 .471 2.861 2.861 0 0 0 .532.023z" class="cls-1" data-name="Path 348" transform="translate(-498.62 -87.421)"/>
        <path id="Path_349" d="M606.235 100.356h1.484a.245.245 0 0 0 .258-.226c0-.129-.064-.258-.194-.258-.452 0-.452-.323-.419-.613v-1.807c0-.29-.064-.452-.419-.452s-.42.194-.42.484v1.872c0 .258.032.516-.355.549-.194.032-.226.129-.194.29s.13.161.259.161z" class="cls-1" data-name="Path 349" transform="translate(-410.428 -65.672)"/>
        <path id="Path_350" d="M607.236 100.089h-1.484a.523.523 0 0 1-.381-.129.375.375 0 0 1-.1-.236.426.426 0 0 1 .38-.539c.165 0 .168 0 .168-.268v-1.936a.61.61 0 0 1 .645-.71.584.584 0 0 1 .646.678v1.813c0 .09-.029.287.023.345a.262.262 0 0 0 .171.042.445.445 0 0 1 .419.484v.045a.474.474 0 0 1-.487.411zm-1.51-.455h1.51a.036.036 0 0 0 .029-.023.646.646 0 0 1-.481-.2.83.83 0 0 1-.135-.671v-1.785c0-.223-.016-.223-.193-.223s-.194 0-.194.255v1.936a.582.582 0 0 1-.536.711z" class="cls-1" data-name="Path 350" transform="translate(-409.945 -65.176)"/>
        <path id="Path_351" d="M606.189 110.781h1.484a.239.239 0 0 0 .258-.258.2.2 0 0 0-.226-.226h-1.549a.239.239 0 0 0-.258.258c.002.161.129.226.291.226z" class="cls-1" data-name="Path 351" transform="translate(-410.382 -74.677)"/>
        <path id="Path_352" d="M607.187 110.537H605.7a.471.471 0 1 1-.032-.939h1.549a.426.426 0 0 1 .452.452.464.464 0 0 1-.484.487zm-1.546-.458h1.578v-.026h-1.581v.023z" class="cls-1" data-name="Path 352" transform="translate(-409.896 -74.205)"/>
        <path id="Path_353" d="M606.223 108.416h1.323c.194 0 .387 0 .355-.258s-.226-.226-.387-.258h-1.258c-.194 0-.355.032-.355.29s.16.226.322.226z" class="cls-1" data-name="Path 353" transform="translate(-410.383 -73.055)"/>
        <path id="Path_354" d="M607.072 108.17h-1.323c-.136 0-.549 0-.549-.455 0-.236.1-.516.581-.516h1.365a.468.468 0 0 1 .494.468.417.417 0 0 1-.094.323.607.607 0 0 1-.474.18zm-1.42-.458h1.548v-.032h-1.42a.528.528 0 0 0-.126 0 .305.305 0 0 0-.002.032z" class="cls-1" data-name="Path 354" transform="translate(-409.909 -72.579)"/>
        <path id="Path_355" d="M526.72 81.173a3.97 3.97 0 0 1 3.195-1.291 2.754 2.754 0 0 1 2.84 2.452 6.386 6.386 0 0 1 .1 1.129v6.841c0 .419-.1.549-.548.549-.9-.032-1.807-.032-2.743 0-.419 0-.452-.194-.452-.516s-.064-.613.452-.581 1 0 1.484 0c.29 0 .355-.1.355-.387 0-2.065 0-4.1-.032-6.163a1.911 1.911 0 0 0-1.1-1.936 2.488 2.488 0 0 0-2.582.258 1.972 1.972 0 0 0-.936 1.613c-.161 2.388-.419 4.744-.645 7.131-.032.419-.161.613-.613.549a.919.919 0 0 0-.419 0c-.323.032-.42-.1-.387-.419.161-1.549.29-3.1.452-4.614.1-.936.194-1.839.258-2.775a4.909 4.909 0 0 0-.42-2.549c-.129-.323-.1-.484.29-.42a1.823 1.823 0 0 0 .419 0c.484-.1.678.161.775.581a1.442 1.442 0 0 1 .257.548z" class="cls-1" data-name="Path 355" transform="translate(-355.373 -54.073)"/>
        <path id="Path_356" d="M405.835 86.623V90.3c0 .355-.1.516-.484.484-1.129-.032-.936.129-.936-.936v-6.355a2.157 2.157 0 0 0-2.259-2.452c-.516-.032-1.033 0-1.549-.032-.387-.032-.484.129-.484.484.032 1.936 0 3.872 0 5.841a6.732 6.732 0 0 1-.129 1.807 2.3 2.3 0 0 1-2.84 1.71c-.581-.161-.258-.613-.323-.936s.258-.226.452-.226c.9.065 1.388-.323 1.388-1.258.032-2.291 0-4.614.032-6.906 0-.355-.161-.355-.42-.323-.742.065-.936-.194-.742-.936.032-.161.129-.194.258-.194a19.152 19.152 0 0 1 5.26-.1 3.028 3.028 0 0 1 2.743 3.259c.033 1.133.033 2.263.033 3.392z" class="cls-1" data-name="Path 356" transform="translate(-268.757 -54.037)"/>
        <path id="Path_357" d="M453.337 86.639v3.646c0 .387-.065.549-.484.516-1.1-.032-.9.129-.9-.9v-6.424a2.114 2.114 0 0 0-2.194-2.42c-.549-.065-1.129 0-1.71-.032-.419-.032-.387.226-.387.516v6.325a4.781 4.781 0 0 1-.194 1.517 2.239 2.239 0 0 1-2.775 1.452c-.549-.161-.258-.613-.29-.968s.258-.194.419-.194c.936.065 1.42-.323 1.42-1.291.032-2.291 0-4.55.032-6.841 0-.387-.161-.387-.452-.355-.678.1-.936-.258-.71-.968.032-.129.1-.161.226-.161a18.408 18.408 0 0 1 5.324-.1 3.016 3.016 0 0 1 2.711 3.227c-.004 1.164-.036 2.293-.036 3.455z" class="cls-1" data-name="Path 357" transform="translate(-300.964 -54.02)"/>
        <path id="Path_358" d="M486.877 86.559V90.3c0 .355-.065.516-.452.484-1.162-.032-.936.129-.936-.936v-6.355a2.129 2.129 0 0 0-2.259-2.452c-.484-.032-1 0-1.484-.032-.419-.032-.549.1-.549.549.032 2.1 0 4.195 0 6.325a5.363 5.363 0 0 1-.129 1.258 2.3 2.3 0 0 1-2.84 1.71c-.581-.161-.29-.613-.323-.936s.258-.226.452-.226c.9.065 1.388-.323 1.388-1.258.032-2.291 0-4.614.032-6.906 0-.323-.129-.355-.419-.323-.742.1-.936-.194-.774-.936.032-.161.129-.194.258-.194a19.153 19.153 0 0 1 5.26-.1 3.029 3.029 0 0 1 2.743 3.259c.032 1.133 0 2.231.032 3.328z" class="cls-1" data-name="Path 358" transform="translate(-323.662 -54.037)"/>
        <path id="Path_359" d="M324.1 85.358v-4.873c0-.387.065-.581.516-.581a22.371 22.371 0 0 1 4.647.065 3.029 3.029 0 0 1 2.743 3.259v7c0 .387-.064.581-.516.549-1.032-.065-.871.129-.871-.871v-6.42a2.107 2.107 0 0 0-2.162-2.42 22.388 22.388 0 0 0-2.549 0c-.419 0-.355.323-.355.581v8.293c0 .29.129.71-.1.807a2.5 2.5 0 0 1-1.1.065c-.29-.032-.194-.323-.194-.484-.059-1.679-.059-3.328-.059-4.97z" class="cls-1" data-name="Path 359" transform="translate(-219.517 -54.03)"/>
        <path id="Path_360" d="M370.583 90.848a32.959 32.959 0 0 0-1.872-.161c-.742-.032-.387-.581-.419-.936-.065-.452.291-.29.516-.258a19.789 19.789 0 0 0 2.388.161 2.346 2.346 0 0 0 2.581-1.807 7.948 7.948 0 0 0-.032-5.26 2.374 2.374 0 0 0-2.969-1.678 2.519 2.519 0 0 0-2.13 2.517 2.2 2.2 0 0 0 1.968 2.549c.387.1.549.161.419.613s-.194.549-.678.452a3.328 3.328 0 0 1-2.969-2.9 3.724 3.724 0 0 1 1.968-3.937 4 4 0 0 1 5.97 2.711 9.456 9.456 0 0 1 .1 4.356c-.424 2.13-1.743 3.868-4.841 3.578z" class="cls-1" data-name="Path 360" transform="translate(-248.801 -53.937)"/>
        <path id="Path_361" d="M557.561 80.335c.452-.129.613.161.742.613.742 2.711 1.42 5.453 2 8.2.1.484.258.549.645.29a4.42 4.42 0 0 0 2.033-2.969 46.83 46.83 0 0 0 .549-4.711c.032-.226.032-.452.065-.678.1-.742.1-.71.839-.742.516-.032.613.161.581.645-.194 1.646-.226 3.324-.484 4.937-.484 3.13-2.291 4.808-5.421 5.228-.871.129-1.775.258-2.646.355-.194.032-.484.194-.484-.194 0-.323-.258-.807.323-.9a53.225 53.225 0 0 1 2.388-.355c.452-.065.549-.194.419-.645a798.443 798.443 0 0 1-2.194-8.325c-.258-.749-.258-.749.645-.749z" class="cls-1" data-name="Path 361" transform="translate(-376.533 -54.364)"/>
        <path id="Path_362" d="M513.793 85.76v-4.873c0-.419.129-.581.548-.516h.258c.452-.065.613.1.613.581-.032 1.807 0 3.614 0 5.389 0 1.42-.032 2.84 0 4.292 0 .452-.129.613-.581.549h-.161c-.516.1-.71-.1-.678-.645.033-1.615.001-3.196.001-4.777z" class="cls-1" data-name="Path 362" transform="translate(-347.996 -54.4)"/>
        <path id="Path_363" d="M356.593 85.76v-4.873c0-.419.129-.581.549-.516h.258c.452-.065.613.1.613.581-.032 1.807 0 3.614 0 5.389 0 1.42-.032 2.84 0 4.292 0 .452-.129.613-.581.549h-.161c-.516.1-.71-.1-.678-.645.032-1.615 0-3.196 0-4.777z" class="cls-1" data-name="Path 363" transform="translate(-241.522 -54.4)"/>
        <path id="Path_364" d="M202.676 93.1c-.549-.484-1.065-1-1.581-1.517a16.5 16.5 0 0 0-3.582-2.743 3.746 3.746 0 0 0-1.775-.484 4.178 4.178 0 0 0-3.066 1.743c-.29.29-.194.452.1.678.226.161.387.065.581-.065a3.8 3.8 0 0 1 2.647-.579 7.482 7.482 0 0 1 3.743 2.452 26.252 26.252 0 0 0-4.453.774 15.49 15.49 0 0 1-3.453.355c-1.388-.032-1.9-.484-2.1-1.839a3.585 3.585 0 0 0-3.775-3.066 3.049 3.049 0 0 0-2.969 3.162 1.891 1.891 0 0 1-1.613 1.743 8 8 0 0 1-3.259-.355c-.355-.129-.419-.226-.194-.549a24.129 24.129 0 0 0 2.033-3.679c.194-.452.129-.613-.323-.742a13.229 13.229 0 0 0-4.776-.323c-1.549.161-1.517.194-2.162 1.581a.758.758 0 0 0 .032.742 9.078 9.078 0 0 0 2.291 3c.129.1.323.161.355.452a6.486 6.486 0 0 0-3.324-.161 2.228 2.228 0 0 1-2.775-1.549 7.784 7.784 0 0 1-.258-.807c-.29-1-.29-1-1.291-.742-.387.1-.549.226-.42.645a1.588 1.588 0 0 1-.419 1.807 2.969 2.969 0 0 1-2.807.645c-.871-.194-.936-1-1.129-1.646 0-.065-.032-.1-.032-.161a49.7 49.7 0 0 1-.742-5.357c-.032-.42-.161-.452-.484-.258a1.89 1.89 0 0 0-.968.9 1.272 1.272 0 0 1-.581.645 16.18 16.18 0 0 0-3.485 2.969 1.444 1.444 0 0 0 .258 2.356 2.329 2.329 0 0 0 .774.452 3.813 3.813 0 0 0 3.9-.516 2.859 2.859 0 0 0 1.452 1.872c1.258.645 3.937.452 4.84-1.065.129-.194.226-.226.387-.032a3.7 3.7 0 0 0 3.808 1.355 4.668 4.668 0 0 1 2.582.065 1.217 1.217 0 0 0 1.807-.516c.129-.226.29-.258.549-.129a7.371 7.371 0 0 0 2.743.613c1.323.1 2.614.194 3.646-.936.194-.226.323-.032.42.1 1.226 1.452 4.1 1.646 5.357.1.161-.194.258-.161.419-.032a4.608 4.608 0 0 0 3.259.742c1.775-.194 3.485-.678 5.26-.968a6.466 6.466 0 0 1 3.42.065.665.665 0 0 0 .936-.226l.29-.387c.131-.26.131-.384-.093-.584zm-41.724-1.484a2.278 2.278 0 0 1-1.742.678 2.527 2.527 0 0 1-1.194-.355c-.29-.194-.355-.387-.065-.678a23.463 23.463 0 0 1 2.549-2.194c.226-.161.323-.129.355.161.065.581.194 1.162.29 1.743a.687.687 0 0 1-.193.646zm15.747.549a.229.229 0 0 1-.387.065 7.134 7.134 0 0 1-1.9-2.356c-.129-.29-.032-.323.226-.355a12.532 12.532 0 0 1 1.549-.129c.516.032 1.033.1 1.549.129.258.032.42.065.258.387a22.552 22.552 0 0 1-1.294 2.26zm9.907 1.839a2.043 2.043 0 0 1-2.13-2.227 1.436 1.436 0 0 1 1.613-1.517 2.123 2.123 0 0 1 2.13 2.194 1.491 1.491 0 0 1-1.613 1.549z" class="cls-1" data-name="Path 364" transform="translate(-105.773 -58.321)"/>
        <path id="Path_365" d="M69.143 75.743a.968.968 0 0 0-.581 1.129c.1.774.1 1.517.129 2.291.065 1.807.161 3.646.194 5.453.032 1.1-.387 1.549-1.484 1.71a2.143 2.143 0 0 1-2.581-1.388 6.186 6.186 0 0 1-.355-1c-.29-1.033-.29-1.033-1.355-.774-.355.1-.516.226-.387.613a1.733 1.733 0 0 1-.29 1.71 3.153 3.153 0 0 1-3.356.645c-.1-.065-.258-.129-.258-.258a3.026 3.026 0 0 1 .381-1.354 1.808 1.808 0 0 0 .29-1.388c0-.129 0-.323-.226-.29-.29.032-.258-.161-.29-.323a5.677 5.677 0 0 0-.516-1.581 3.161 3.161 0 0 0-3.223-1.738 3.079 3.079 0 0 0-2.711 2.162 2.7 2.7 0 0 0 1.876 3.771 5.266 5.266 0 0 0 2.13.065c.29-.065.613-.1.968-.194a1.816 1.816 0 0 1-1.65 1.196 28.993 28.993 0 0 1-4.421.1c-2.033.032-2.42-.355-2.388-2.388 0-2.485.065-5 .1-7.486 0-1.226-.129-1.323-1.258-.742-.355.194-.678.387-.678.9.1 2.743.161 5.453.258 8.2a2.8 2.8 0 0 0 2.614 2.936 35.658 35.658 0 0 0 4.9.1 5.121 5.121 0 0 0 2.485-.581.439.439 0 0 1 .484 0 4.334 4.334 0 0 0 5.615-1.065 3.517 3.517 0 0 0 2.581 1.613c2.743.452 4.421-.936 4.421-3.679 0-2.549-.032-5.1-.065-7.648-.062-1.266-.196-1.33-1.353-.717zm-11.907 7.938a7.223 7.223 0 0 1-1.42.226c-1.065 0-1.646-.387-1.872-1.162a1.489 1.489 0 0 1 .549-1.775 1.855 1.855 0 0 1 2.065.1 3.2 3.2 0 0 1 1 2.323c0 .223-.193.256-.322.288z" class="cls-1" data-name="Path 365" transform="translate(-31.969 -50.998)"/>
        <path id="Path_366" d="M18.255 96.162a13.755 13.755 0 0 0-2.42-2.323 2.9 2.9 0 0 0-1.872-.549A4.339 4.339 0 0 0 11 95.1a.216.216 0 0 0 .032.323c.258.29.484.29.839.1A2.837 2.837 0 0 1 15 95.258a12.775 12.775 0 0 1 2.388 2.194c-.065.032-.065.065-.1.065a.71.71 0 0 1-.258-.032 7.164 7.164 0 0 0-4.9 1.162 4.9 4.9 0 0 0-2.13 4.84 4.609 4.609 0 0 0 3.1 3.872 7.072 7.072 0 0 0 2.711.484c1.033 0 1.226-.161 1.581-1.162.129-.387.032-.452-.355-.419a6.829 6.829 0 0 1-2.291-.032 3.859 3.859 0 0 1-3.162-2.582 3.44 3.44 0 0 1 2.549-4.389 7.929 7.929 0 0 1 4.421-.065 1.157 1.157 0 0 0 1.42-.549c.194-.258.226-.419-.032-.678-.557-.579-1.106-1.192-1.687-1.805z" class="cls-1" data-name="Path 366" transform="translate(-6.736 -63.156)"/>
        <path id="Path_367" d="M128.4 75.7c-.839.355-.9.484-.9 1.388v5.292h.129c.1 1.9.1 3.808.1 5.712 0 .161-.129.387.129.452.452.129 1.355-.516 1.355-.936.129-3.743.161-7.519.194-11.294-.007-1.005-.068-1.005-1.007-.614z" class="cls-1" data-name="Path 367" transform="translate(-86.357 -51.08)"/>
        <path id="Path_368" d="M87.736 87.762c1.033.807.807.968 1.807-.129.226-.258.355-.323.645-.065 1 .839 1 .839 1.839-.161a2.26 2.26 0 0 0 .258-.323.707.707 0 0 1 .1-.161c-.1-.226-.323-.323-.484-.452-.355-.29-.678-.742-1.065-.774s-.613.549-.9.871c-.194.194-.29.226-.516.065-.355-.258-.678-.839-1.1-.71s-.613.645-.968.968c-.258.226-.194.419.032.613a1.01 1.01 0 0 1 .355.258z" class="cls-1" data-name="Path 368" transform="translate(-59.049 -58.016)"/>
        <path id="Path_369" d="M156.409 80c.065.032.1.1.161.129.968.742.71.936 1.743-.129.1-.129.226-.226.323-.355a5.6 5.6 0 0 1 .452.387c.839.678.839.678 1.549-.1.613-.678.645-.678-.1-1.258-.323-.258-.613-.71-.968-.678-.29.065-.549.516-.807.807s-.419.258-.678.032c-.968-.774-.968-.774-1.775.161-.448.517-.448.517.1 1.004z" class="cls-1" data-name="Path 369" transform="translate(-105.65 -52.8)"/>
        <path id="Path_370" d="M187.144 118.611c-.355.419-.581.419-.968.065-.807-.678-.807-.678-1.517.1-.613.678-.613.678.1 1.291l.032.032c.9.678.678.9 1.613-.129.323-.355.484-.387.839-.064.839.742.871.742 1.613-.129a4.861 4.861 0 0 0 .355-.42.9.9 0 0 0 .161-.258c-.258-.226-.516-.42-.774-.645-.777-.618-.809-.654-1.454.157z" class="cls-1" data-name="Path 370" transform="translate(-124.768 -79.893)"/>
        <path id="Path_371" d="M277.384 116.83c-.839-.645-.839-.645-1.517.194-.548.645-.548.645.129 1.226.29.258.613.484.9.71a1.7 1.7 0 0 0 .645-.516c.779-.872.779-.872-.157-1.614z" class="cls-1" data-name="Path 371" transform="translate(-186.58 -78.79)"/>
        <path id="Path_372" d="M69.086 77.255c.645.516.645.516 1.226-.129.226-.258.452-.549.71-.9-.1-.065-.161-.129-.258-.194a11.294 11.294 0 0 1-.968-.774c-.387-.419-.613-.29-.936.1-.807 1.09-.839 1.058.226 1.897z" class="cls-1" data-name="Path 372" transform="translate(-46.239 -50.768)"/>
        <path id="Path_373" d="M510.133 168.874a3.429 3.429 0 0 1 3.84-1.291 2.165 2.165 0 0 1 1.517 1.065c.161.258.226.355.452.065a3.788 3.788 0 0 1 4.485-.9 2.446 2.446 0 0 1 1.259 1.807 5.979 5.979 0 0 1 .1 1.065v5.615c0 .355-.1.484-.484.484-.936 0-.936 0-.936-.936v-5.038c-.032-1.355-.516-2.033-1.581-2.162a2.3 2.3 0 0 0-2.743 1.743 4.961 4.961 0 0 0-.161 1.387v4.485c0 .419-.129.549-.549.549-1-.032-.871.1-.871-.839v-5.2c-.032-1.291-.516-1.968-1.517-2.1a2.217 2.217 0 0 0-2.678 1.549 4.581 4.581 0 0 0-.194 1.484v4.55c0 .419-.1.581-.516.549-1.033-.032-.871.129-.871-.9v-7.745c0-.258-.064-.581.355-.549.323.032.807-.194.839.42a4.32 4.32 0 0 1 .254.843z" class="cls-1" data-name="Path 373" transform="translate(-344.529 -113.377)"/>
        <path id="Path_374" d="M561.42 175.721c.484-1.42.968-2.743 1.42-4.034.387-1.1.807-2.162 1.162-3.259a.645.645 0 0 1 .742-.516c.968.032.968 0 .613.9-1.194 3.13-2.355 6.26-3.55 9.39a8.721 8.721 0 0 1-.42.968 3.2 3.2 0 0 1-3.711 1.968c-.645-.065-.452-.516-.484-.871-.032-.484.355-.29.581-.258a2.2 2.2 0 0 0 2.453-1.452 3.108 3.108 0 0 0 .064-2.775c-1.065-2.42-2-4.873-2.969-7.325-.226-.549-.193-.581.355-.581 1.1 0 .839-.161 1.226.839.84 2.327 1.808 4.554 2.518 7.006z" class="cls-1" data-name="Path 374" transform="translate(-377.391 -113.673)"/>
        <path id="Path_375" d="M292.068 177.027a6.387 6.387 0 0 1-2.259-.387 1.178 1.178 0 0 1-.387-1.323c.161-.194.29 0 .419.032a5.966 5.966 0 0 0 3.356.419 1.594 1.594 0 0 0 1.033-.516 1.207 1.207 0 0 0-.258-1.775 9.763 9.763 0 0 0-1.936-.936c-.484-.194-1-.42-1.452-.645a2.129 2.129 0 0 1-1.226-2.13 2.18 2.18 0 0 1 1.517-1.936 6.092 6.092 0 0 1 3.485-.129c.161.032.355.1.516.129 1 .323.807.194.484 1.033-.129.29-.258.355-.548.226a5.36 5.36 0 0 0-3.1-.323 1.077 1.077 0 0 0-.291 2.1 12.689 12.689 0 0 0 1.807.774 7.856 7.856 0 0 1 1.484.71 2.22 2.22 0 0 1 1.129 2.1 2.307 2.307 0 0 1-1.323 2.065 5.1 5.1 0 0 1-2.45.512z" class="cls-1" data-name="Path 375" transform="translate(-195.971 -113.431)"/>
        <path id="Path_376" d="M379.035 172.354c.032.323.032.678.1 1 .258 1.872 1.484 2.711 3.388 2.42a7.606 7.606 0 0 0 1.226-.323c.258-.1.355-.032.355.226.065.839-.032.968-.839 1.194a6.453 6.453 0 0 1-2.485.1 3.433 3.433 0 0 1-2.84-2.452 6.715 6.715 0 0 1 0-4.356 3.714 3.714 0 0 1 3.453-2.582 7.147 7.147 0 0 1 2.323.258c.387.1.613.258.355.71a2.23 2.23 0 0 0-.1.258c-.065.355-.226.452-.613.323a3.69 3.69 0 0 0-1.033-.226 2.6 2.6 0 0 0-3.227 2.549c-.031.256-.031.578-.063.901z" class="cls-1" data-name="Path 376" transform="translate(-255.736 -113.469)"/>
        <path id="Path_377" d="M446.619 168.406v-11.552c0-.807 0-.807-.807-.774h-.226c-.29-.032-.387.129-.355.387.032 1.323-.032 2.646.032 3.969a1.481 1.481 0 0 1-.032.645c-.1-.065-.129-.129-.194-.161a3.633 3.633 0 0 0-6.228 1.581 7.6 7.6 0 0 0-.1 3.711 3.439 3.439 0 0 0 2.614 2.936 3.568 3.568 0 0 0 3.969-1.291 3.713 3.713 0 0 1 .129.645c-.032.678.419.613.839.613.585.001.359-.451.359-.709zm-1.613-1.872a2.218 2.218 0 0 1-2.13 1.549 2.124 2.124 0 0 1-2.356-1.129 5.537 5.537 0 0 1 .065-4.937 2.192 2.192 0 0 1 2.388-1.065 2.086 2.086 0 0 1 1.936 1.42 5.975 5.975 0 0 1 .291 2.259 4.744 4.744 0 0 1-.194 1.903z" class="cls-1" data-name="Path 377" transform="translate(-297.021 -105.681)"/>
        <path id="Path_378" d="M262.924 156.636c0-.549-.161-.678-.678-.645-.419.032-.774-.032-.742.613.065 1.452-.032 2.872.1 4.453a2.84 2.84 0 0 1-.258-.226 3.638 3.638 0 0 0-6.2 1.484 7.356 7.356 0 0 0-.129 3.743 3.387 3.387 0 0 0 2.452 2.936 3.579 3.579 0 0 0 3.969-1.065.243.243 0 0 1 .161-.032 5.383 5.383 0 0 1 .1.581c-.032.678.452.516.839.549.484.032.355-.323.355-.581.031-3.937-.001-7.874.031-11.81zm-1.614 9.81a2.217 2.217 0 0 1-2.162 1.581 2.063 2.063 0 0 1-2.323-1.162 5.486 5.486 0 0 1 .065-4.9 2.15 2.15 0 0 1 2.42-1.065 2.117 2.117 0 0 1 1.936 1.452 6.327 6.327 0 0 1 .29 2.194 7.5 7.5 0 0 1-.226 1.899z" class="cls-1" data-name="Path 378" transform="translate(-172.603 -105.624)"/>
        <path id="Path_379" d="M348.776 170.168c-1.517-3.84-3-7.648-4.485-11.488-.161-.42-.452-.387-.774-.387s-.581-.065-.742.387c-1.484 3.84-3 7.648-4.518 11.488-.161.387-.032.452.323.42a1.551 1.551 0 0 1 .387 0c.42.064.645-.1.807-.516.355-1 .742-1.968 1.129-2.936a.536.536 0 0 1 .581-.42q2.033.048 4.066 0a.51.51 0 0 1 .581.387c.355.936.742 1.872 1.1 2.84.161.484.387.807.871.645h.452c.346.064.318-.097.222-.42zm-3.646-4.743h-3.194c-.323 0-.323-.161-.226-.42.387-1 .774-2 1.13-3l.71-2.033c.581 1.775 1.258 3.421 1.872 5.1.03.32-.099.353-.293.353z" class="cls-1" data-name="Path 379" transform="translate(-229.058 -107.185)"/>
        <path id="Path_380" d="M476.016 172.5c.9.032 1.775 0 2.678 0h1.806c1.42 0 1.42 0 1.323-1.42a3.613 3.613 0 0 0-3-3.517 3.733 3.733 0 0 0-4.292 2.388 6.061 6.061 0 0 0-.1 4.389 3.688 3.688 0 0 0 3.066 2.582 6.84 6.84 0 0 0 3.227-.226c.807-.258.775-.258.775-1.065 0-.355-.1-.42-.452-.29a6.259 6.259 0 0 1-2.549.452 2.772 2.772 0 0 1-2.9-2.807c-.033-.355.063-.486.418-.486zm2.743-3.743a2.259 2.259 0 0 1 1.581 2.323c-.032.258-.161.258-.355.258h-4.066c-.194 0-.355-.032-.323-.29a2.5 2.5 0 0 1 3.163-2.289z" class="cls-1" data-name="Path 380" transform="translate(-321.094 -113.423)"/>
        <path id="Path_381" d="M84.462 167.669a3.225 3.225 0 0 0-1.807 1.291 4.269 4.269 0 0 1-.129-.774c0-.645-.484-.452-.839-.484-.452-.032-.355.29-.355.549 0 4.066 0 8.132-.032 12.2 0 .581.29.581.678.549s.774.1.742-.549c-.065-1.549.032-3.1-.1-4.711a.721.721 0 0 1 .161.1 3.574 3.574 0 0 0 3.9 1.033 3.393 3.393 0 0 0 2.485-2.807 7.341 7.341 0 0 0-.032-3.646 3.543 3.543 0 0 0-4.672-2.751zm2.808 7.231a2.286 2.286 0 0 1-2.356.9 2.152 2.152 0 0 1-1.9-1.484 8.473 8.473 0 0 1-.1-4 2.13 2.13 0 0 1 1.872-1.581 2.386 2.386 0 0 1 2.517.936 5.554 5.554 0 0 1-.033 5.229z" class="cls-1" data-name="Path 381" transform="translate(-55.065 -113.43)"/>
        <path id="Path_382" d="M51.823 167.627a3.544 3.544 0 0 0-3.937 1.1.708.708 0 0 1-.161.1 4.569 4.569 0 0 1-.129-.645c.032-.645-.42-.549-.839-.581-.516 0-.387.355-.387.645v11.778c0 .936 0 .936.968.9.323 0 .452-.1.419-.452-.032-.742 0-1.452 0-2.194a24.774 24.774 0 0 0-.1-2.646 2.487 2.487 0 0 0 .226.129 3.637 3.637 0 0 0 3.872 1.033 3.393 3.393 0 0 0 2.485-2.807 7.483 7.483 0 0 0 .032-3.485 3.389 3.389 0 0 0-2.449-2.875zm.549 7.2a2.249 2.249 0 0 1-2.356.936 2.112 2.112 0 0 1-1.936-1.517 5.683 5.683 0 0 1-.258-2.065 6.59 6.59 0 0 1 .226-1.968 2.136 2.136 0 0 1 1.9-1.549 2.336 2.336 0 0 1 2.485.968 5.774 5.774 0 0 1-.061 5.191z" class="cls-1" data-name="Path 382" transform="translate(-31.397 -113.388)"/>
        <path id="Path_383" d="M12.563 158.864a.742.742 0 0 0-.807-.581.749.749 0 0 0-.839.581c-1.42 3.711-2.9 7.39-4.356 11.1a1.365 1.365 0 0 0-.161.645 5.69 5.69 0 0 1 .742 0 .665.665 0 0 0 .839-.549c.323-1 .742-1.968 1.129-2.937a.5.5 0 0 1 .549-.387h4.13a.5.5 0 0 1 .549.387c.29.807.613 1.581.936 2.388.484 1.226.484 1.194 1.775 1.1.032 0 .032 0 .1-.032-.065-.194-.129-.355-.194-.549-1.487-3.744-2.94-7.455-4.392-11.166zm.742 6.551h-3.1c-.419 0-.387-.161-.258-.452.581-1.613 1.291-3.195 1.775-5 .581 1.839 1.226 3.453 1.872 5.1.099.287.006.352-.288.352z" class="cls-1" data-name="Path 383" transform="translate(-4.335 -107.175)"/>
        <path id="Path_384" d="M224.6 172.427h4.485c1.452 0 1.452 0 1.355-1.484a3.607 3.607 0 0 0-2.969-3.485 3.748 3.748 0 0 0-4.259 2.227 6.163 6.163 0 0 0-.161 4.55 3.772 3.772 0 0 0 3.066 2.614 7.141 7.141 0 0 0 3.291-.226.856.856 0 0 0 .742-1c-.032-.484-.161-.484-.548-.323a6.335 6.335 0 0 1-2.453.419 2.744 2.744 0 0 1-2.9-2.84c-.073-.356.024-.452.351-.452zm2.775-3.743a2.225 2.225 0 0 1 1.549 2.356c-.032.258-.194.258-.387.258h-4c-.226 0-.387 0-.355-.29.285-1.708 1.447-2.708 3.189-2.325z" class="cls-1" data-name="Path 384" transform="translate(-150.829 -113.348)"/>
        <path id="Path_385" d="M194.976 167.561a3.756 3.756 0 0 0-4.292 2.291 6.235 6.235 0 0 0-.161 4.389 3.753 3.753 0 0 0 3.066 2.678 7.589 7.589 0 0 0 3.291-.194c.581-.161.839-.42.742-1.033-.032-.355-.065-.484-.452-.323a6.854 6.854 0 0 1-2.549.452 2.749 2.749 0 0 1-2.872-2.646c-.065-.452.032-.645.549-.613.839.032 1.71 0 2.581 0h1.775c1.452 0 1.452 0 1.355-1.452a3.775 3.775 0 0 0-3.033-3.549zm1.065 3.808h-4c-.258 0-.355-.065-.323-.323a2.475 2.475 0 0 1 2.452-2.356 2.2 2.2 0 0 1 2.291 2.356c-.001.29-.161.323-.421.323z" class="cls-1" data-name="Path 385" transform="translate(-128.825 -113.419)"/>
        <path id="Path_386" d="M135.176 167.561a3.756 3.756 0 0 0-4.292 2.291 6.235 6.235 0 0 0-.161 4.389 3.669 3.669 0 0 0 3.066 2.646 6.73 6.73 0 0 0 3.291-.226c.774-.258.774-.258.742-1.1 0-.323-.065-.419-.387-.29a6.261 6.261 0 0 1-2.549.452 2.759 2.759 0 0 1-2.936-2.711c-.032-.419.032-.581.484-.548.871.032 1.743 0 2.614 0h1.775c1.452 0 1.452 0 1.355-1.452a3.628 3.628 0 0 0-3.002-3.451zm1.129 3.808h-4c-.226 0-.387 0-.355-.29.258-1.678 1.388-2.711 3.162-2.291a2.225 2.225 0 0 1 1.549 2.356c-.001.225-.161.225-.356.225z" class="cls-1" data-name="Path 386" transform="translate(-88.321 -113.419)"/>
        <path id="Path_387" d="M167.936 172.28a8.973 8.973 0 0 0-1.581-.774 12.116 12.116 0 0 1-1.872-.807 1.107 1.107 0 0 1-.645-1.226c.1-.581.516-.742.968-.871a5.1 5.1 0 0 1 3.1.29c.29.1.419.1.549-.226.323-.871.516-.71-.452-1.065a3.9 3.9 0 0 0-.581-.161 5.939 5.939 0 0 0-3.517.194 2.123 2.123 0 0 0-1.42 1.9 2.165 2.165 0 0 0 1.129 2.1 9.561 9.561 0 0 0 1.549.71 9.875 9.875 0 0 1 1.872.871 1.207 1.207 0 0 1 .387 1.71 1.536 1.536 0 0 1-1.033.581 5.838 5.838 0 0 1-3.388-.419c-.129-.065-.29-.226-.419-.065a1.164 1.164 0 0 0 .387 1.323 6.261 6.261 0 0 0 2.259.387 4.847 4.847 0 0 0 2.711-.613 2.276 2.276 0 0 0-.003-3.839z" class="cls-1" data-name="Path 387" transform="translate(-110.045 -113.266)"/>
        <path id="Path_388" d="M117.723 156.061a1.788 1.788 0 0 0-1.162-.032c-.258.065-.129.419-.129.613v11.488c0 1-.161.839.871.871.452.032.516-.161.516-.549v-11.907c.001-.161.098-.419-.096-.484z" class="cls-1" data-name="Path 388" transform="translate(-78.839 -105.598)"/>
        <path id="Path_389" d="M413.428 167.949a2.484 2.484 0 0 0-2.1-2.614 7.006 7.006 0 0 0-4.582.516c-.645.29-.032.645 0 .936.032.387.29.323.549.194a5.86 5.86 0 0 1 2.775-.549 1.767 1.767 0 0 1 1.839 1.678c.129 1.194.129 1.194-1.065 1.194a9.805 9.805 0 0 0-3.969.678 2.817 2.817 0 0 0 .9 5.357 4.19 4.19 0 0 0 4.2-1.581c.129.516.194.871.29 1.226.161.452.549.194.871.258.258.065.355-.1.323-.323.001-2.319.033-4.647-.031-6.97zm-1.549 3.9a2.966 2.966 0 0 1-4 2.162 1.41 1.41 0 0 1-.968-1.388 1.694 1.694 0 0 1 1-1.743 7.948 7.948 0 0 1 2.711-.484h.032c1.386-.059 1.446.038 1.225 1.458z" class="cls-1" data-name="Path 389" transform="translate(-274.478 -111.839)"/>
        <path id="Path_390" d="M225.462 215.113H.807a.807.807 0 1 1 0-1.613h224.655a.807.807 0 1 1 0 1.613z" class="cls-1" data-name="Path 390" transform="translate(0 -144.579)"/>
    </g>
</svg>
