<svg xmlns="http://www.w3.org/2000/svg" width="18.642" height="22.785" viewBox="0 0 18.642 22.785">
    <defs>
        <style>
            .cls-1{fill:#1b166e}
        </style>
    </defs>
    <path id="noun_Book_2349054" d="M10.071 2.667A2.071 2.071 0 0 0 8 4.738V23.38a2.071 2.071 0 0 0 2.071 2.071h14.5a2.071 2.071 0 0 0 2.071-2.071v-1.035a2.074 2.074 0 0 1-2.071 2.071H10.589a1.554 1.554 0 1 1 0-3.107h13.982a2.071 2.071 0 0 0 2.071-2.071v-14.5a2.071 2.071 0 0 0-2.071-2.071z" class="cls-1" transform="translate(-8 -2.667)"/>
</svg>

