<svg xmlns="http://www.w3.org/2000/svg" width="22.993" height="23.716" viewBox="0 0 22.993 23.716">
    <defs>
        <style>
            .cls-1{fill:#1b166e;fill-rule:evenodd}
        </style>
    </defs>
    <g id="noun_off_1915997">
        <path id="Path_781" d="M11.5 0A11.7 11.7 0 0 1 23 11.858a11.7 11.7 0 0 1-11.5 11.858A11.7 11.7 0 0 1 0 11.858 11.7 11.7 0 0 1 11.5 0zm1.635 6.9a5.827 5.827 0 0 1 4.088 5.639A5.851 5.851 0 0 1 11.5 18.5 5.938 5.938 0 0 1 9.861 6.9v1.69a4.361 4.361 0 0 0 1.639 8.327 4.361 4.361 0 0 0 1.631-8.327zM11.5 5.217a.931.931 0 0 1 .92.949v5.376a.945.945 0 0 1-.92 1 .985.985 0 0 1-.971-1V6.166a.974.974 0 0 1 .971-.949z" class="cls-1" data-name="Path 781"/>
    </g>
</svg>
