<svg xmlns="http://www.w3.org/2000/svg" width="28.42" height="15.764" viewBox="0 0 28.42 15.764">
    <defs>
        <style>
            .cls-1{fill:#1b166e;fill-rule:evenodd}
        </style>
    </defs>
    <g id="noun_user_user_1064877" data-name="noun_user user_1064877" transform="translate(-10 -979.362)">
        <path id="Path_777" d="M28.433 977.362a3.827 3.827 0 1 0 3.864 3.827 3.85 3.85 0 0 0-3.864-3.827z" class="cls-1" data-name="Path 777" transform="translate(-9.403 2)"/>
        <path id="Path_778" d="M19.033 1009.78a16.208 16.208 0 0 1 5.191.8 7.439 7.439 0 0 1 2.838 1.648 3.18 3.18 0 0 1 1.014 2.333v1.469H10v-1.469a3.308 3.308 0 0 1 1.314-2.617 8.984 8.984 0 0 1 3.582-1.679 17.111 17.111 0 0 1 4.137-.481z" class="cls-1" data-name="Path 778" transform="translate(0 -20.902)"/>
        <path id="Path_779" d="M59.49 1009.8a16.914 16.914 0 0 1 4.051.518 8.77 8.77 0 0 1 3.481 1.676 3.282 3.282 0 0 1 1.272 2.576v1.469H59.37v-1.469a4.7 4.7 0 0 0-1.425-3.332 7.257 7.257 0 0 0-1.612-1.2 18.32 18.32 0 0 1 3.157-.238z" class="cls-1" data-name="Path 779" transform="translate(-29.874 -20.912)"/>
        <path id="Path_780" d="M57.594 977.362a3.827 3.827 0 1 0 3.849 3.827 3.85 3.85 0 0 0-3.849-3.827z" class="cls-1" data-name="Path 780" transform="translate(-28.205 2)"/>
    </g>
</svg>
